<?xml version="1.0" encoding="UTF-8"?>
<!DOCTYPE svg PUBLIC "-//W3C//DTD SVG 1.1//EN" "http://www.w3.org/Graphics/SVG/1.1/DTD/svg11.dtd">
<svg xmlns="http://www.w3.org/2000/svg" version="1.1" width="99px" height="48px" style="shape-rendering:geometricPrecision; text-rendering:geometricPrecision; image-rendering:optimizeQuality; fill-rule:evenodd; clip-rule:evenodd" xmlns:xlink="http://www.w3.org/1999/xlink">
<g><path style="opacity:0.873" fill="#16c0f3" d="M 50.5,-0.5 C 53.5,-0.5 56.5,-0.5 59.5,-0.5C 63.9867,0.981566 64.6534,3.64823 61.5,7.5C 50.6153,0.868634 44.6153,4.0353 43.5,17C 44.5577,29.4354 50.7243,33.2687 62,28.5C 62.5,28.8333 63,29.1667 63.5,29.5C 62.6906,31.0709 62.3573,32.7376 62.5,34.5C 42.1216,37.4759 34.2883,28.8092 39,8.5C 41.5856,3.73063 45.4189,0.730633 50.5,-0.5 Z"/></g>
<g><path style="opacity:0.863" fill="#16c1f3" d="M 7.5,0.5 C 10.1667,0.5 12.8333,0.5 15.5,0.5C 14.4307,8.46466 14.264,16.4647 15,24.5C 19.002,32.919 24.002,33.5857 30,26.5C 30.8029,18.1178 30.6362,9.78451 29.5,1.5C 31.396,0.534431 33.396,0.201097 35.5,0.5C 35.6664,8.83999 35.4997,17.1733 35,25.5C 33.702,32.6602 29.3687,35.9935 22,35.5C 16.3035,35.9877 12.3035,33.6543 10,28.5C 9.66667,20.5 9.33333,12.5 9,4.5C 6.6275,3.68285 6.1275,2.34952 7.5,0.5 Z"/></g>
<g><path style="opacity:0.903" fill="#16c0f2" d="M 65.5,0.5 C 70.8437,0.333983 76.1771,0.500649 81.5,1C 83.3333,1.5 84.5,2.66667 85,4.5C 86.6549,9.93669 85.1549,14.1034 80.5,17C 83.5465,22.9301 87.2131,28.4301 91.5,33.5C 89.2095,34.5905 86.8762,35.0905 84.5,35C 81.4403,29.033 77.7736,23.533 73.5,18.5C 72.3881,23.8285 72.3881,29.1619 73.5,34.5C 71.1432,34.6633 68.8098,34.4966 66.5,34C 67.6515,24.2441 67.8181,14.4107 67,4.5C 66.2496,3.87424 65.4162,3.37424 64.5,3C 65.2524,2.32924 65.5858,1.4959 65.5,0.5 Z M 72.5,4.5 C 77.0753,3.34328 79.7419,5.00994 80.5,9.5C 78.7748,12.9347 76.2748,15.6013 73,17.5C 72.501,13.1794 72.3343,8.84611 72.5,4.5 Z"/></g>
<g><path style="opacity:0.844" fill="#16c1f3" d="M 98.5,44.5 C 98.5,45.1667 98.5,45.8333 98.5,46.5C 65.5024,43.8832 32.5024,43.8832 -0.5,46.5C -0.5,45.8333 -0.5,45.1667 -0.5,44.5C 32.5332,37.8695 65.5332,37.8695 98.5,44.5 Z"/></g>
</svg>
