<?xml version="1.0" encoding="UTF-8"?>
<svg version="1.1" xmlns="http://www.w3.org/2000/svg" width="274" height="146">
<path d="M0 0 C90.42 0 180.84 0 274 0 C274 48.18 274 96.36 274 146 C183.58 146 93.16 146 0 146 C0 97.82 0 49.64 0 0 Z " fill="#FCFFFF" transform="translate(0,0)"/>
<path d="M0 0 C5.56838851 -0.09926507 11.13625604 -0.17165521 16.70532227 -0.21972656 C18.5976662 -0.23977703 20.48994868 -0.26702477 22.38208008 -0.30175781 C25.11034351 -0.35056652 27.83778415 -0.37303442 30.56640625 -0.390625 C31.82463951 -0.42159271 31.82463951 -0.42159271 33.10829163 -0.45318604 C38.91170859 -0.4553769 42.21271855 0.68920961 47 4 C50.48391288 7.5757963 52.30155762 11.50442871 52.5 16.5 C52.06291091 23.01150671 50.52684074 27.97527312 45.5625 32.375 C43.17352775 34.28831558 40.76839297 35.69794265 38 37 C38.63838239 40.81284297 40.40669519 43.37754031 42.5703125 46.54296875 C43.3025 47.61740234 44.0346875 48.69183594 44.7890625 49.79882812 C45.17352539 50.35642822 45.55798828 50.91402832 45.95410156 51.48852539 C47.10632004 53.16039536 48.24919907 54.83832693 49.390625 56.51757812 C57.52191257 68.81877644 57.52191257 68.81877644 68 79 C68 79.66 68 80.32 68 81 C65.26658516 81.21698552 62.55037288 81.37463542 59.8125 81.5 C59.04357422 81.56703125 58.27464844 81.6340625 57.48242188 81.703125 C55.09858214 81.78497357 53.27792449 81.72181837 51 81 C48.71170232 78.64389539 47.43320458 75.93075841 46 73 C45.22824183 71.70466951 44.44201037 70.41783808 43.640625 69.140625 C43.25148926 68.50535889 42.86235352 67.87009277 42.46142578 67.21557617 C33.74782894 51.33068002 33.74782894 51.33068002 20 41 C20.33 39.02 20.66 37.04 21 35 C21.72445312 34.91363281 22.44890625 34.82726563 23.1953125 34.73828125 C29.62538566 33.80377728 33.58479717 32.87996102 38 28 C39.83860025 22.64211584 39.51557396 16.47475502 38.375 11 C36.78657822 8.25930089 36.78657822 8.25930089 31 7 C24.07 6.505 24.07 6.505 17 6 C17.495 42.63 17.495 42.63 18 80 C13.38 80 8.76 80 4 80 C4 55.58 4 31.16 4 6 C1.03 5.505 1.03 5.505 -2 5 C-1.34 3.35 -0.68 1.7 0 0 Z " fill="#53FFFF" transform="translate(185,4)"/>
<path d="M0 0 C0 1.32 0 2.64 0 4 C-4.33766989 3.73516004 -8.67522694 3.46855481 -13.01269531 3.20043945 C-14.48271886 3.10980618 -15.95277025 3.01962312 -17.42285156 2.92993164 C-31.19889521 2.0888976 -31.19889521 2.0888976 -37.85546875 1.5 C-94.69322579 -3.34874125 -152.75527198 -2.42216911 -209.6875 0.375 C-210.97292694 0.43803314 -212.25835388 0.50106628 -213.58273315 0.56600952 C-227.11685909 1.25044794 -240.62388958 2.1205439 -254.11833191 3.37142944 C-259.77393845 3.88222114 -265.32076098 4.08336365 -271 4 C-271 2.68 -271 1.36 -271 0 C-248.37985834 -3.52648351 -225.81074423 -6.95960956 -203 -9 C-201.57593744 -9.13597017 -200.15194944 -9.27272293 -198.72802734 -9.41015625 C-133.07698352 -15.67384314 -64.71941962 -13.42384254 0 0 Z " fill="#54FFFF" transform="translate(273,110)"/>
<path d="M0 0 C5.61 0 11.22 0 17 0 C17.00410889 1.80597656 17.00821777 3.61195313 17.01245117 5.47265625 C17.03190834 11.46394918 17.07431004 17.45471843 17.13209057 23.44573975 C17.16626811 27.07540014 17.19145595 30.70464379 17.19555664 34.33447266 C17.19985977 37.84268573 17.22848563 41.34996023 17.27343178 44.85787964 C17.29259327 46.83623289 17.28706899 48.81477599 17.28105164 50.79321289 C17.39856484 58.09572018 17.99310789 63.43490808 23 69 C28.37436146 73.40220734 34.42957005 74.70755733 41.2578125 74.359375 C47.76906831 73.50604803 54.54467781 72.11051662 59 67 C62.6922331 59.96801189 63.56740645 53.68706937 63.42578125 45.83984375 C63.42249313 44.80992813 63.41920502 43.78001251 63.41581726 42.71888733 C63.40019873 39.45798149 63.35623287 36.1981361 63.3125 32.9375 C63.30099279 30.74675325 63.29121233 28.55599671 63.28320312 26.36523438 C63.2697773 24.25259376 63.25485385 22.13996202 63.23828125 20.02734375 C63.23089432 19.05522446 63.22350739 18.08310516 63.21589661 17.08152771 C63.13622111 11.32066707 62.72764433 5.71605454 62 0 C65.96 0 69.92 0 74 0 C73.9367744 7.25941696 73.86110713 14.51845761 73.76428509 21.77750969 C73.71979508 25.14917426 73.68049406 28.52072394 73.65356445 31.89257812 C73.61982736 35.7802397 73.56749981 39.66728714 73.51171875 43.5546875 C73.50532883 44.74988007 73.4989389 45.94507263 73.49235535 47.17648315 C73.29877753 58.32934271 71.54302497 67.58588259 63.3125 75.625 C53.91049986 83.0225128 42.54812233 84.00007312 31 83 C22.29656717 81.49841873 14.25584115 78.41429748 9 71 C5.26866479 63.04704916 4.40013259 55.81432252 4.390625 47.11328125 C4.37408875 45.93025925 4.35755249 44.74723724 4.34051514 43.52836609 C4.29234775 39.7896896 4.27073293 36.05141894 4.25 32.3125 C4.22181432 29.76104763 4.1918833 27.20961391 4.16015625 24.65820312 C4.08659716 18.43887501 4.03477219 12.21965955 4 6 C1.03 5.505 1.03 5.505 -2 5 C-1.34 3.35 -0.68 1.7 0 0 Z " fill="#52FFFF" transform="translate(24,4)"/>
<path d="M0 0 C-0.70482013 4.48291002 -1.69879804 8.66266014 -3 13 C-6.39592437 12.3922283 -8.38646483 11.14495305 -11.0625 9 C-17.64861468 3.74122129 -24.94489786 4.56123287 -33 5 C-40.76143348 6.22077381 -46.64849219 10.50480258 -51.31640625 16.765625 C-57.01358821 26.09975337 -57.3277904 37.08191024 -55.3125 47.58203125 C-52.44888918 57.83137166 -48.12065679 64.06545269 -39.24609375 69.87109375 C-31.24318142 73.89342708 -19.6144903 73.06412972 -11.25 70.625 C-8.39413394 69.66333082 -6.55510627 68.70340418 -4 67 C-3.01 67 -2.02 67 -1 67 C-1.67080894 70.82041661 -2.45391324 74.43210748 -4 78 C-7.4375 79.625 -7.4375 79.625 -11 80 C-11.96583008 80.25281738 -11.96583008 80.25281738 -12.95117188 80.51074219 C-25.10650286 83.41342132 -41.19833374 81.82654518 -51.8125 75.3125 C-60.91081896 68.57908705 -66.82126812 59.51686098 -69.64453125 48.48046875 C-71.38052272 36.36668211 -69.53675033 24.96158016 -62.8125 14.625 C-55.4416762 4.92323192 -45.53684507 -0.99782936 -33.5390625 -2.68359375 C-21.99806991 -3.71540435 -11.11726421 -3.66215762 0 0 Z " fill="#52FFFF" transform="translate(176,5)"/>
<path d="M0 0 C2.14576637 -0.02685938 4.29162645 -0.04633088 6.4375 -0.0625 C7.63246094 -0.07410156 8.82742187 -0.08570312 10.05859375 -0.09765625 C13 0 13 0 14 1 C16.67058851 1.14115161 19.32432238 1.04247107 22 1 C22.70074844 4.153368 23 6.72724974 23 10 C24.42621684 12.71126384 24.42621684 12.71126384 26 15 C24.25 14.9375 24.25 14.9375 22 14 C20.40498463 11.75835678 19.25456982 9.46433357 18 7 C18.66 6.67 19.32 6.34 20 6 C20 5.01 20 4.02 20 3 C19.01 2.67 18.02 2.34 17 2 C17 6.29 17 10.58 17 15 C13.04 15 9.08 15 5 15 C5 11.04 5 7.08 5 3 C1.86888657 6.13111343 0.4856481 7.53075407 -1.25 11.25 C-1.58515625 11.95640625 -1.9203125 12.6628125 -2.265625 13.390625 C-2.50796875 13.92171875 -2.7503125 14.4528125 -3 15 C-3.66 15 -4.32 15 -5 15 C-6.65 10.38 -8.3 5.76 -10 1 C-9.01 1 -8.02 1 -7 1 C-5.68 3.97 -4.36 6.94 -3 10 C-2.01 6.7 -1.02 3.4 0 0 Z " fill="#E8FFFF" transform="translate(51,127)"/>
<path d="M0 0 C0.78552246 0.01047363 1.57104492 0.02094727 2.38037109 0.03173828 C3.23115234 0.03818359 4.08193359 0.04462891 4.95849609 0.05126953 C6.29267578 0.07640625 6.29267578 0.07640625 7.65380859 0.10205078 C8.99958984 0.11558594 8.99958984 0.11558594 10.37255859 0.12939453 C12.59157445 0.15300108 14.81005937 0.18592768 17.02880859 0.22705078 C17.35880859 0.88705078 17.68880859 1.54705078 18.02880859 2.22705078 C19.34880859 1.56705078 20.66880859 0.90705078 22.02880859 0.22705078 C22.86620641 2.35045238 23.69861142 4.47582358 24.52880859 6.60205078 C24.99287109 7.78541016 25.45693359 8.96876953 25.93505859 10.18798828 C27.02880859 13.22705078 27.02880859 13.22705078 27.02880859 15.22705078 C26.03880859 15.22705078 25.04880859 15.22705078 24.02880859 15.22705078 C23.69880859 13.57705078 23.36880859 11.92705078 23.02880859 10.22705078 C21.04880859 10.22705078 19.06880859 10.22705078 17.02880859 10.22705078 C17.02880859 11.87705078 17.02880859 13.52705078 17.02880859 15.22705078 C14.38880859 15.22705078 11.74880859 15.22705078 9.02880859 15.22705078 C9.02880859 10.93705078 9.02880859 6.64705078 9.02880859 2.22705078 C7.95630859 2.41267578 6.88380859 2.59830078 5.77880859 2.78955078 C2.62489314 3.15750758 0.93062367 3.27170421 -1.97119141 2.22705078 C-0.74185126 5.91507122 0.96740237 6.95062051 4.02880859 9.22705078 C3.71630859 11.60205078 3.71630859 11.60205078 3.02880859 14.22705078 C0.02880859 16.22705078 0.02880859 16.22705078 -2.65869141 15.85205078 C-3.42181641 15.64580078 -4.18494141 15.43955078 -4.97119141 15.22705078 C-4.64119141 14.56705078 -4.31119141 13.90705078 -3.97119141 13.22705078 C-2.32119141 13.22705078 -0.67119141 13.22705078 1.02880859 13.22705078 C1.02880859 12.23705078 1.02880859 11.24705078 1.02880859 10.22705078 C0.20380859 9.77330078 -0.62119141 9.31955078 -1.47119141 8.85205078 C-2.70869141 8.04767578 -2.70869141 8.04767578 -3.97119141 7.22705078 C-4.40869141 4.66455078 -4.40869141 4.66455078 -3.97119141 2.22705078 C-1.97119141 0.22705078 -1.97119141 0.22705078 0 0 Z " fill="#E7FFFF" transform="translate(194.97119140625,126.77294921875)"/>
<path d="M0 0 C2.9375 2.0625 2.9375 2.0625 5 5 C5 8.51955419 4.63108355 10.84920059 2.9375 13.9375 C-0.26063137 15.69131398 -3.45325707 15.6502362 -7 15 C-9.91781637 12.72045596 -9.97820387 11.17436907 -10.4375 7.5 C-10 4 -10 4 -8.375 1.5625 C-5.24316508 -0.49791771 -3.68455227 -0.6767545 0 0 Z " fill="#FAFFFF" transform="translate(185,127)"/>
<path d="M0 0 C10.47972722 -0.36987273 10.47972722 -0.36987273 12.82421875 1.296875 C14.8451514 4.22420602 14.48050025 6.57643572 14 10 C11.83868824 12.63409871 10.32118648 13.85103073 6.88671875 14.23828125 C4.92290019 14.24874565 2.95934865 14.1328372 1 14 C0.67 9.38 0.34 4.76 0 0 Z " fill="#F3FFFF" transform="translate(92,128)"/>
<path d="M0 0 C10.49282564 -0.37033502 10.49282564 -0.37033502 12.82421875 1.33203125 C14.71291804 4.01134885 14.50969827 5.81438583 14 9 C12 11.875 12 11.875 9 14 C6.19242993 14.40997788 3.86006586 14.24237846 1 14 C0.67 9.38 0.34 4.76 0 0 Z " fill="#62FFFF" transform="translate(119,128)"/>
<path d="M0 0 C3.1875 0.125 3.1875 0.125 7.1875 1.125 C7.1875 5.745 7.1875 10.365 7.1875 15.125 C6.5275 15.125 5.8675 15.125 5.1875 15.125 C4.8575 14.135 4.5275 13.145 4.1875 12.125 C3.445 12.805625 2.7025 13.48625 1.9375 14.1875 C-0.8125 16.125 -0.8125 16.125 -3.125 15.875 C-3.681875 15.6275 -4.23875 15.38 -4.8125 15.125 C-4.8125 14.465 -4.8125 13.805 -4.8125 13.125 C-3.1625 13.125 -1.5125 13.125 0.1875 13.125 C0.1875 12.135 0.1875 11.145 0.1875 10.125 C-2.2515706 7.92357668 -2.2515706 7.92357668 -4.8125 6.125 C-3.74299971 0.16635554 -3.74299971 0.16635554 0 0 Z " fill="#B4FFFF" transform="translate(82.8125,126.875)"/>
<path d="M0 0 C2.97 0 5.94 0 9 0 C9.66 1.32 10.32 2.64 11 4 C10.67 4.99 10.34 5.98 10 7 C9.34 7 8.68 7 8 7 C8.433125 7.55429688 8.86625 8.10859375 9.3125 8.6796875 C10.1478125 9.76636719 10.1478125 9.76636719 11 10.875 C11.556875 11.59429687 12.11375 12.31359375 12.6875 13.0546875 C14 15 14 15 14 17 C12.68 17 11.36 17 10 17 C9.0234375 15.20963542 8.046875 13.41927083 7.0703125 11.62890625 C6.08589976 9.83381685 6.08589976 9.83381685 4 9 C4 11.64 4 14.28 4 17 C3.01 17 2.02 17 1 17 C0.67 11.39 0.34 5.78 0 0 Z " fill="#6AFFFF" transform="translate(225,126)"/>
<path d="M0 0 C6.0546875 -0.1953125 6.0546875 -0.1953125 8 0 C10 2 10 2 10.4375 4.9375 C10 8 10 8 7.8125 9.875 C5 11 5 11 0 11 C0 7.37 0 3.74 0 0 Z " fill="#71FFFF" transform="translate(138,130)"/>
<path d="M0 0 C1.32 0 2.64 0 4 0 C4.06058594 0.92683594 4.12117187 1.85367188 4.18359375 2.80859375 C4.26738281 4.00613281 4.35117188 5.20367187 4.4375 6.4375 C4.51871094 7.63246094 4.59992187 8.82742187 4.68359375 10.05859375 C4.67656114 12.88570244 4.67656114 12.88570244 6 14 C8.5 14.16666667 8.5 14.16666667 11 14 C12.87824891 12.12175109 12.39102397 8.96064724 12.5625 6.4375 C12.64628906 5.23996094 12.73007812 4.04242188 12.81640625 2.80859375 C12.87699219 1.88175781 12.93757813 0.95492187 13 0 C13.66 0 14.32 0 15 0 C15.10794277 2.26979665 15.18556176 4.54105196 15.25 6.8125 C15.29640625 8.07707031 15.3428125 9.34164062 15.390625 10.64453125 C15 14 15 14 13.171875 15.921875 C10.19922696 17.39750604 8.27728761 17.47793778 5 17 C1.98592971 14.73944728 1.0957685 13.50830971 0.390625 9.765625 C0.34421875 8.60546875 0.2978125 7.4453125 0.25 6.25 C0.19328125 5.07953125 0.1365625 3.9090625 0.078125 2.703125 C0.05234375 1.81109375 0.0265625 0.9190625 0 0 Z " fill="#5AFFFF" transform="translate(5,126)"/>
<path d="M0 0 C5 0 5 0 6.80078125 1.75 C7.29964844 2.4925 7.79851563 3.235 8.3125 4 C8.82425781 4.7425 9.33601563 5.485 9.86328125 6.25 C10.23839844 6.8275 10.61351562 7.405 11 8 C11.33 5.36 11.66 2.72 12 0 C12.66 0 13.32 0 14 0 C14 4.62 14 9.24 14 14 C10.13209997 12.06604999 9.12365764 11.2196994 6.75 7.875 C5.38875 5.956875 5.38875 5.956875 4 4 C3.67 7.3 3.34 10.6 3 14 C2.34 14 1.68 14 1 14 C0.67 9.38 0.34 4.76 0 0 Z " fill="#63FFFF" transform="translate(21,128)"/>
<path d="M0 0 C2.9375 2.0625 2.9375 2.0625 5 5 C5 8.51955419 4.63108355 10.84920059 2.9375 13.9375 C-0.26063137 15.69131398 -3.45325707 15.6502362 -7 15 C-9.91781637 12.72045596 -9.97820387 11.17436907 -10.4375 7.5 C-10 4 -10 4 -8.375 1.5625 C-5.24316508 -0.49791771 -3.68455227 -0.6767545 0 0 Z M-7 4 C-7.3176246 5.91006306 -7.3176246 5.91006306 -7.25 8 C-7.25515625 8.70125 -7.2603125 9.4025 -7.265625 10.125 C-7.15705515 12.2435669 -7.15705515 12.2435669 -5 14 C-2.5 14.33333333 -2.5 14.33333333 0 14 C2.15705515 12.2435669 2.15705515 12.2435669 2.265625 10.125 C2.26046875 9.42375 2.2553125 8.7225 2.25 8 C2.25515625 7.29875 2.2603125 6.5975 2.265625 5.875 C2.15705515 3.7564331 2.15705515 3.7564331 0 2 C-3.9674509 1.56530472 -3.9674509 1.56530472 -7 4 Z " fill="#61FFFF" transform="translate(185,127)"/>
<path d="M0 0 C6.875 0.875 6.875 0.875 8 2 C8.1875 5.4375 8.1875 5.4375 8 9 C6 11 6 11 2.875 11.125 C1.451875 11.063125 1.451875 11.063125 0 11 C0 7.37 0 3.74 0 0 Z " fill="#FBFFFF" transform="translate(122,129)"/>
<path d="M0 0 C0.66 0 1.32 0 2 0 C2.83739781 2.1234016 3.66980283 4.2487728 4.5 6.375 C4.9640625 7.55835938 5.428125 8.74171875 5.90625 9.9609375 C7 13 7 13 7 15 C6.01 15 5.02 15 4 15 C3.67 13.35 3.34 11.7 3 10 C1.02 10 -0.96 10 -3 10 C-3 11.65 -3 13.3 -3 15 C-3.99 15 -4.98 15 -6 15 C-4.36041242 9.76727367 -2.61047965 4.84803364 0 0 Z " fill="#6AFFFF" transform="translate(215,127)"/>
<path d="M0 0 C-0.33 0.99 -0.66 1.98 -1 3 C-2.11375 2.79375 -3.2275 2.5875 -4.375 2.375 C-5.57125 2.25125 -6.7675 2.1275 -8 2 C-10.15705515 3.7564331 -10.15705515 3.7564331 -10.265625 5.875 C-10.26046875 6.57625 -10.2553125 7.2775 -10.25 8 C-10.25515625 8.70125 -10.2603125 9.4025 -10.265625 10.125 C-10.15705515 12.2435669 -10.15705515 12.2435669 -8 14 C-5.31160615 14.26991906 -2.70858064 14.08737357 0 14 C-0.33 14.99 -0.66 15.98 -1 17 C-8.09774436 17.60150376 -8.09774436 17.60150376 -12 15 C-14.77041398 10.84437903 -14.70476018 8.93332128 -14 4 C-10.9733152 -1.50306327 -5.53719757 -0.38041815 0 0 Z " fill="#5FFFFF" transform="translate(175,126)"/>
<path d="M0 0 C10.47972722 -0.36987273 10.47972722 -0.36987273 12.82421875 1.296875 C14.8451514 4.22420602 14.48050025 6.57643572 14 10 C11.83868824 12.63409871 10.32118648 13.85103073 6.88671875 14.23828125 C4.92290019 14.24874565 2.95934865 14.1328372 1 14 C0.67 9.38 0.34 4.76 0 0 Z M3 1 C3 4.63 3 8.26 3 12 C6.41642759 12.25015873 6.41642759 12.25015873 10 12 C12.33296251 9.17282787 12.33296251 9.17282787 11.75 5.9375 C11.2406756 2.900541 11.2406756 2.900541 9 1 C5.91652174 0.83318891 5.91652174 0.83318891 3 1 Z " fill="#50FFFF" transform="translate(92,128)"/>
<path d="M0 0 C0.99 0.33 1.98 0.66 3 1 C4.16796875 3.3984375 4.16796875 3.3984375 5.1875 6.375 C5.53167969 7.35210937 5.87585938 8.32921875 6.23046875 9.3359375 C7 12 7 12 7 15 C6.01 15 5.02 15 4 15 C4 13.35 4 11.7 4 10 C2.02 10 0.04 10 -2 10 C-2.33 11.65 -2.66 13.3 -3 15 C-3.99 14.67 -4.98 14.34 -6 14 C-4.02 9.38 -2.04 4.76 0 0 Z " fill="#6BFFFF" transform="translate(111,127)"/>
<path d="M0 0 C0.66 0 1.32 0 2 0 C2.83739781 2.1234016 3.66980283 4.2487728 4.5 6.375 C4.9640625 7.55835938 5.428125 8.74171875 5.90625 9.9609375 C7 13 7 13 7 15 C6.01 15 5.02 15 4 15 C3.67 13.35 3.34 11.7 3 10 C1.02 10 -0.96 10 -3 10 C-3 11.65 -3 13.3 -3 15 C-3.99 15 -4.98 15 -6 15 C-4.36041242 9.76727367 -2.61047965 4.84803364 0 0 Z " fill="#6AFFFF" transform="translate(263,127)"/>
<path d="M0 0 C2.64 0 5.28 0 8 0 C8.70074844 3.153368 9 5.72724974 9 9 C10.42621684 11.71126384 10.42621684 11.71126384 12 14 C10.25 13.9375 10.25 13.9375 8 13 C6.40498463 10.75835678 5.25456982 8.46433357 4 6 C4.66 5.67 5.32 5.34 6 5 C6 4.01 6 3.02 6 2 C5.01 1.67 4.02 1.34 3 1 C3 5.29 3 9.58 3 14 C2.34 14 1.68 14 1 14 C0.67 9.38 0.34 4.76 0 0 Z " fill="#54FFFF" transform="translate(65,128)"/>
<path d="M0 0 C-0.33 0.99 -0.66 1.98 -1 3 C-1.969375 2.979375 -2.93875 2.95875 -3.9375 2.9375 C-6.87465895 2.64381501 -6.87465895 2.64381501 -8 4 C-8.25003964 7.45821402 -8.25003964 7.45821402 -8 11 C-6.10244856 13.34973818 -6.10244856 13.34973818 -2.875 13.125 C-1.451875 13.063125 -1.451875 13.063125 0 13 C0 13.66 0 14.32 0 15 C-7.25581395 15.48372093 -7.25581395 15.48372093 -10.5 13.375 C-12.48198314 10.23686002 -12.67064058 8.65126535 -12 5 C-8.4762117 0.08805267 -5.9155397 -0.57995487 0 0 Z " fill="#75FFFF" transform="translate(256,127)"/>
<path d="M0 0 C1.4540625 0.0309375 1.4540625 0.0309375 2.9375 0.0625 C2.9375 1.0525 2.9375 2.0425 2.9375 3.0625 C-0.0325 2.5675 -0.0325 2.5675 -3.0625 2.0625 C-2.37364204 5.27311378 -2.37364204 5.27311378 0.5 6.4375 C2.9375 8.0625 2.9375 8.0625 3.5 10.5625 C2.9375 13.0625 2.9375 13.0625 1.1875 14.9375 C-1.0625 16.0625 -1.0625 16.0625 -3.3125 15.75 C-3.89 15.523125 -4.4675 15.29625 -5.0625 15.0625 C-5.0625 14.4025 -5.0625 13.7425 -5.0625 13.0625 C-3.4125 13.0625 -1.7625 13.0625 -0.0625 13.0625 C-0.0625 12.0725 -0.0625 11.0825 -0.0625 10.0625 C-2.5015706 7.86107668 -2.5015706 7.86107668 -5.0625 6.0625 C-3.98897059 0.08140756 -3.98897059 0.08140756 0 0 Z " fill="#68FFFF" transform="translate(83.0625,126.9375)"/>
<path d="M0 0 C0.99 0 1.98 0 3 0 C4.32 2.97 5.64 5.94 7 9 C7.99 6.03 8.98 3.06 10 0 C10.99 0.33 11.98 0.66 13 1 C12.24275352 2.98440482 11.46877038 4.96243005 10.6875 6.9375 C10.25824219 8.03964844 9.82898437 9.14179688 9.38671875 10.27734375 C8 13 8 13 5 14 C3.35 9.38 1.7 4.76 0 0 Z " fill="#60FFFF" transform="translate(41,128)"/>
<path d="M0 0 C0.78375 0.04125 1.5675 0.0825 2.375 0.125 C2.045 1.115 1.715 2.105 1.375 3.125 C0.055 2.795 -1.265 2.465 -2.625 2.125 C-1.39565985 5.81302044 0.31359378 6.84856973 3.375 9.125 C3.0625 11.5 3.0625 11.5 2.375 14.125 C-0.625 16.125 -0.625 16.125 -3.3125 15.75 C-4.075625 15.54375 -4.83875 15.3375 -5.625 15.125 C-5.295 14.465 -4.965 13.805 -4.625 13.125 C-2.975 13.125 -1.325 13.125 0.375 13.125 C0.375 12.135 0.375 11.145 0.375 10.125 C-0.45 9.67125 -1.275 9.2175 -2.125 8.75 C-3.3625 7.945625 -3.3625 7.945625 -4.625 7.125 C-5.0625 4.5625 -5.0625 4.5625 -4.625 2.125 C-2.625 0.125 -2.625 0.125 0 0 Z " fill="#69FFFF" transform="translate(195.625,126.875)"/>
<path d="M0 0 C2.64 0 5.28 0 8 0 C7.67 0.66 7.34 1.32 7 2 C5.68 1.67 4.36 1.34 3 1 C3 2.65 3 4.3 3 6 C4.65 6 6.3 6 8 6 C8 6.33 8 6.66 8 7 C6.35 7 4.7 7 3 7 C3 8.65 3 10.3 3 12 C4.98 12 6.96 12 9 12 C9 12.66 9 13.32 9 14 C6.36 14 3.72 14 1 14 C0.67 9.38 0.34 4.76 0 0 Z " fill="#5EFFFF" transform="translate(55,128)"/>
<path d="M0 0 C3.63 0 7.26 0 11 0 C9.68 0.33 8.36 0.66 7 1 C7 5.29 7 9.58 7 14 C6.01 14 5.02 14 4 14 C4 9.71 4 5.42 4 1 C2.68 0.67 1.36 0.34 0 0 Z " fill="#74FFFF" transform="translate(200,128)"/>
<path d="M0 0 C1.66611905 -0.042721 3.33382885 -0.04063832 5 0 C6 1 6 1 6.125 4 C6 7 6 7 5 8 C3.33382885 8.04063832 1.66611905 8.042721 0 8 C0 5.36 0 2.72 0 0 Z " fill="#F2FFFF" transform="translate(140,131)"/>
<path d="M0 0 C2.64 0 5.28 0 8 0 C6.02 0.99 6.02 0.99 4 2 C4 6.95 4 11.9 4 17 C3.01 17 2.02 17 1 17 C0.67 11.39 0.34 5.78 0 0 Z " fill="#63FFFF" transform="translate(225,126)"/>
<path d="M0 0 C1.32 0 2.64 0 4 0 C4 4.62 4 9.24 4 14 C3.01 14 2.02 14 1 14 C0.67 9.38 0.34 4.76 0 0 Z " fill="#7DFFFF" transform="translate(239,128)"/>
<path d="M0 0 C1.98 0 3.96 0 6 0 C4.68 0.33 3.36 0.66 2 1 C2 1.99 2 2.98 2 4 C2.99 4.33 3.98 4.66 5 5 C4.01 5 3.02 5 2 5 C2 6.32 2 7.64 2 9 C3.65 8.67 5.3 8.34 7 8 C7 8.99 7 9.98 7 11 C4.69 11 2.38 11 0 11 C0 7.37 0 3.74 0 0 Z " fill="#7DFFFF" transform="translate(149,130)"/>
<path d="M0 0 C0.33 0 0.66 0 1 0 C1.309375 1.134375 1.61875 2.26875 1.9375 3.4375 C2.62924531 6.78775099 2.62924531 6.78775099 4 8 C6.37305578 8.41780879 6.37305578 8.41780879 9 8 C11.31377147 6.10415891 11.31377147 6.10415891 13 4 C12.42655063 6.86724686 12.1385485 7.8614515 10 10 C7.06811139 10.27922749 4.84609353 10.47143881 2 10 C-0.56323176 7.8372732 -0.94110412 6.63313066 -1.25 3.3125 C-1 1 -1 1 0 0 Z " fill="#56FFFF" transform="translate(176,132)"/>
<path d="M0 0 C0.99 0 1.98 0 3 0 C4.56430248 3.12860495 4.35627284 5.55602925 4 9 C1.8125 11.5 1.8125 11.5 -1 13 C-3.8125 12.75 -3.8125 12.75 -6 12 C-6 11.67 -6 11.34 -6 11 C-4.02 10.67 -2.04 10.34 0 10 C0.74926071 6.33694766 1.2380014 3.57644848 0 0 Z " fill="#5BFFFF" transform="translate(102,129)"/>
<path d="M0 0 C0.66 0 1.32 0 2 0 C2.08075665 2.29109597 2.13907731 4.58299267 2.1875 6.875 C2.22230469 8.15117187 2.25710937 9.42734375 2.29296875 10.7421875 C2.19628906 11.81726563 2.09960938 12.89234375 2 14 C1.01 14.66 0.02 15.32 -1 16 C-1 12.74441735 -0.75706131 9.557899 -0.5 6.3125 C-0.4071875 5.13300781 -0.314375 3.95351562 -0.21875 2.73828125 C-0.1465625 1.83464844 -0.074375 0.93101563 0 0 Z " fill="#57FFFF" transform="translate(18,126)"/>
<path d="M0 0 C3 1 3 1 4.16796875 3.21484375 C4.50441406 4.11332031 4.84085938 5.01179687 5.1875 5.9375 C5.70376953 7.28134766 5.70376953 7.28134766 6.23046875 8.65234375 C7 11 7 11 7 13 C6.01 13 5.02 13 4 13 C2.68 8.71 1.36 4.42 0 0 Z " fill="#5DFFFF" transform="translate(215,129)"/>
<path d="M0 0 C3 1 3 1 4.16796875 3.21484375 C4.50441406 4.11332031 4.84085937 5.01179687 5.1875 5.9375 C5.70376953 7.28134766 5.70376953 7.28134766 6.23046875 8.65234375 C7 11 7 11 7 13 C6.01 13 5.02 13 4 13 C2.68 8.71 1.36 4.42 0 0 Z " fill="#59FFFF" transform="translate(263,129)"/>
<path d="M0 0 C1.32 0 2.64 0 4 0 C4.08086147 1.79093191 4.13912702 3.58289628 4.1875 5.375 C4.22230469 6.37273437 4.25710937 7.37046875 4.29296875 8.3984375 C4.19628906 9.25695312 4.09960938 10.11546875 4 11 C3.01 11.66 2.02 12.32 1 13 C0.67 8.71 0.34 4.42 0 0 Z " fill="#7DFFFF" transform="translate(5,126)"/>
<path d="M0 0 C2.7710688 2.34591852 3.52059284 4.14776201 4.1875 7.6875 C4.34605469 8.49574219 4.50460938 9.30398437 4.66796875 10.13671875 C4.77753906 10.75160156 4.88710937 11.36648437 5 12 C4.01 12 3.02 12 2 12 C0.86235649 7.73383684 0 4.43513689 0 0 Z " fill="#61FFFF" transform="translate(113,130)"/>
<path d="M0 0 C1.32 0.33 2.64 0.66 4 1 C3.49396008 3.16874252 3.00016187 4.99967627 2 7 C1.64080679 8.99551782 1.30503431 10.99548879 1 13 C0.67 13 0.34 13 0 13 C0 8.71 0 4.42 0 0 Z " fill="#DAFFFF" transform="translate(68,129)"/>
<path d="M0 0 C1.13186415 1.69779622 2.23762993 3.41585237 3.25 5.1875 C4.9515129 7.35052249 4.9515129 7.35052249 8.1875 7.25 C9.115625 7.1675 10.04375 7.085 11 7 C11 7.66 11 8.32 11 9 C3.64321608 9.36180905 3.64321608 9.36180905 1 7.875 C-0.42098605 5.21065116 -0.19767261 2.96508915 0 0 Z " fill="#56FFFF" transform="translate(245,133)"/>
<path d="M0 0 C2.625 0.375 2.625 0.375 5 1 C4.38125 1.185625 3.7625 1.37125 3.125 1.5625 C-0.05602866 3.71437233 -0.19451947 6.37533763 -1 10 C-1.99 8.68 -2.98 7.36 -4 6 C-2.84826645 3.53199953 -1.95216435 1.95216435 0 0 Z " fill="#80FFFF" transform="translate(179,127)"/>
<path d="M0 0 C1.32 0.33 2.64 0.66 4 1 C3.67 2.65 3.34 4.3 3 6 C2.01 6 1.02 6 0 6 C0 4.02 0 2.04 0 0 Z " fill="#F2FFFF" transform="translate(229,127)"/>
<path d="M0 0 C-0.33 0.66 -0.66 1.32 -1 2 C-3.64 2 -6.28 2 -9 2 C-8.67 1.34 -8.34 0.68 -8 0 C-4.71585695 -0.95067299 -3.30306592 -1.10102197 0 0 Z " fill="#73FFFF" transform="translate(175,141)"/>
<path d="M0 0 C2 2 2 2 2 6 C0.68 6 -0.64 6 -2 6 C-1.125 1.125 -1.125 1.125 0 0 Z " fill="#AFFFFF" transform="translate(263,131)"/>
<path d="M0 0 C2 2 2 2 2 6 C0.68 6 -0.64 6 -2 6 C-1.125 1.125 -1.125 1.125 0 0 Z " fill="#ADFFFF" transform="translate(215,131)"/>
<path d="M0 0 C0.66 0 1.32 0 2 0 C1.01858061 2.45354848 0.27754408 3.79646768 -1.875 5.375 C-4 6 -4 6 -6.25 5.125 C-6.8275 4.75375 -7.405 4.3825 -8 4 C-7.05125 3.896875 -6.1025 3.79375 -5.125 3.6875 C-1.70892499 3.31460705 -1.70892499 3.31460705 0 0 Z " fill="#6EFFFF" transform="translate(104,136)"/>
<path d="M0 0 C1.5 1.3125 1.5 1.3125 3 3 C3 3.99 3 4.98 3 6 C1.35 6 -0.3 6 -2 6 C-1.34 4.02 -0.68 2.04 0 0 Z " fill="#AAFFFF" transform="translate(111,131)"/>
</svg>
