<?xml version="1.0" standalone="no"?>
<!DOCTYPE svg PUBLIC "-//W3C//DTD SVG 20010904//EN"
 "http://www.w3.org/TR/2001/REC-SVG-20010904/DTD/svg10.dtd">
<svg version="1.0" xmlns="http://www.w3.org/2000/svg"
 width="900.000000pt" height="620.000000pt" viewBox="0 0 900.000000 620.000000"
 preserveAspectRatio="xMidYMid meet">

<g transform="translate(0.000000,620.000000) scale(0.100000,-0.100000)"
fill="#000000" stroke="none">
<path d="M4400 5985 c-294 -39 -467 -85 -768 -204 -108 -43 -306 -148 -432
-230 -284 -183 -585 -474 -783 -756 -238 -339 -407 -751 -466 -1135 -42 -274
-43 -293 -38 -505 6 -247 15 -335 57 -550 45 -227 105 -405 200 -595 70 -139
190 -330 246 -391 13 -14 24 -28 24 -32 0 -28 369 -416 440 -463 14 -10 41
-32 60 -49 75 -70 479 -325 514 -325 4 0 43 -16 85 -36 178 -84 495 -177 721
-210 133 -19 703 -19 820 0 486 81 942 282 1312 579 517 413 859 973 999 1632
31 146 32 158 36 470 5 322 2 371 -34 575 -55 313 -180 637 -364 940 -259 425
-659 798 -1094 1020 -289 147 -487 209 -812 254 -155 22 -216 26 -405 25 -123
-1 -266 -7 -318 -14z m272 -162 c20 -18 24 -63 6 -63 -7 0 -23 -3 -35 -6 -17
-5 -23 -2 -23 10 0 12 -10 16 -39 16 -42 0 -55 -9 -45 -33 3 -10 26 -16 71
-20 77 -6 93 -19 100 -79 7 -65 -15 -88 -94 -95 -86 -8 -127 2 -141 33 -21 44
-16 54 27 54 26 0 41 -5 45 -16 9 -23 80 -15 84 10 5 26 -15 36 -75 36 -68 0
-93 22 -93 83 0 70 24 86 124 87 51 0 74 -4 88 -17z m264 4 c6 -5 52 -194 60
-244 l7 -43 -36 0 c-28 0 -37 5 -43 23 -9 30 -22 37 -70 37 -34 0 -43 -4 -52
-25 -10 -21 -16 -24 -44 -18 -18 3 -34 7 -36 8 -2 2 60 175 94 259 6 16 15 18
62 13 30 -3 56 -8 58 -10z m-553 -35 c21 -19 22 -48 1 -56 -24 -9 -54 -7 -54
4 0 12 -60 13 -79 1 -8 -5 -11 -16 -8 -25 5 -13 22 -16 81 -16 69 0 77 -2 91
-24 11 -16 15 -41 13 -73 -3 -42 -7 -50 -33 -62 -16 -8 -62 -16 -101 -19 -66
-4 -72 -3 -88 19 -25 37 -20 56 17 62 21 3 35 0 40 -9 19 -34 105 -5 91 30 -6
16 -14 18 -61 12 -29 -3 -64 -4 -77 0 -28 7 -46 42 -46 88 0 50 19 67 91 81
70 13 95 10 122 -13z m-283 -27 c0 -2 16 -64 36 -136 19 -72 33 -133 31 -136
-3 -2 -20 -6 -39 -9 l-34 -6 -32 129 c-18 71 -32 134 -32 141 0 6 12 13 28 15
15 2 30 5 35 6 4 0 7 -1 7 -4z m-123 -74 c25 -31 38 -91 25 -112 -10 -15 -8
-20 8 -29 19 -10 50 -59 50 -78 0 -5 -16 -14 -36 -20 -35 -10 -37 -10 -47 19
-12 30 -29 35 -75 23 -23 -7 -25 -20 -7 -67 7 -17 -51 -45 -65 -31 -8 9 -90
239 -90 254 0 7 122 54 165 63 28 6 58 -3 72 -22z m-280 -105 c20 -20 53 -90
53 -113 0 -27 -28 -55 -81 -79 -31 -13 -39 -22 -35 -36 3 -10 9 -26 12 -36 4
-13 -2 -22 -21 -30 -40 -18 -43 -16 -69 41 -13 28 -38 82 -55 119 -17 36 -31
70 -31 75 0 8 108 59 160 76 19 7 52 -2 67 -17z m-279 -183 c37 -32 87 -77
111 -99 l44 -42 -32 -17 c-29 -14 -35 -15 -54 -2 -19 12 -26 11 -63 -12 -37
-21 -42 -29 -37 -51 4 -21 -1 -30 -21 -43 -14 -9 -29 -17 -34 -17 -5 0 -26 64
-46 142 -30 113 -35 143 -24 149 7 5 27 17 43 28 17 11 34 20 38 20 5 1 39
-25 75 -56z m1642 13 c732 -124 1318 -535 1658 -1162 182 -338 265 -674 266
-1079 1 -371 -63 -657 -218 -980 -198 -412 -479 -721 -895 -979 -129 -81 -367
-183 -536 -230 -663 -185 -1365 -67 -1922 321 -434 303 -752 747 -889 1242
-57 208 -78 372 -78 626 -1 240 11 341 64 555 117 471 401 911 785 1216 336
266 734 431 1165 484 115 13 489 5 600 -14z m-1880 -140 c10 -13 9 -19 -11
-36 -14 -10 -32 -17 -42 -14 -24 8 -67 -22 -67 -46 0 -33 19 -32 79 5 71 44
100 41 138 -16 33 -50 23 -81 -43 -132 -55 -42 -83 -52 -118 -43 -54 13 -30
83 25 71 34 -8 86 33 76 58 -9 24 -30 21 -80 -13 -59 -40 -87 -39 -126 5 -44
50 -40 75 17 125 77 70 116 79 152 36z m-295 -286 c62 -43 105 -98 105 -136 0
-46 -62 -119 -123 -145 -33 -14 -55 -5 -118 49 -80 69 -87 131 -21 200 67 71
93 76 157 32z m-167 -288 l83 -102 -33 -50 c-18 -27 -35 -50 -38 -49 -24 2
-264 96 -266 104 -2 6 4 20 14 33 l18 23 101 -36 c56 -19 105 -35 108 -35 5 0
-35 54 -110 145 l-24 31 20 34 c18 29 23 32 33 19 6 -8 48 -61 94 -117z m-162
-215 c60 -35 110 -70 112 -79 2 -8 -5 -24 -15 -36 l-18 -21 -112 67 c-61 37
-115 70 -119 75 -10 9 16 57 31 57 7 0 61 -28 121 -63z m-147 -46 c11 -7 11
-15 2 -41 -6 -18 -11 -36 -11 -40 0 -4 43 -27 95 -51 52 -23 95 -46 95 -50 0
-20 -25 -59 -37 -59 -8 0 -53 21 -101 46 -78 41 -88 44 -97 29 -30 -50 -31
-50 -58 -32 l-26 17 47 95 c46 93 60 106 91 86z m-37 -283 c15 -10 28 -27 28
-36 0 -12 3 -13 12 -4 14 14 48 15 82 3 23 -9 24 -12 14 -45 -11 -35 -13 -36
-50 -30 -36 6 -39 5 -52 -27 -17 -40 -15 -46 24 -54 34 -7 34 -9 19 -54 -8
-24 -16 -31 -28 -26 -9 4 -68 25 -131 48 -63 22 -117 42 -119 43 -6 5 40 136
58 164 9 14 23 31 31 38 20 16 76 6 112 -20z m-34 -290 c56 -21 72 -40 72 -86
0 -48 -28 -127 -55 -152 -24 -23 -29 -23 -88 -13 -89 15 -135 37 -148 70 -23
59 14 185 59 202 34 11 91 4 160 -21z m-108 -281 c46 -16 61 -48 53 -114 -5
-49 -4 -53 15 -53 37 0 52 -11 52 -40 0 -16 -5 -32 -10 -35 -15 -9 -263 15
-274 26 -6 5 -5 42 2 96 10 74 16 92 37 111 29 25 70 28 125 9z m-115 -352 c1
-58 2 -60 28 -63 27 -3 27 -3 27 57 0 58 1 61 25 61 24 0 25 -3 25 -60 l0 -60
30 0 30 0 0 65 0 65 30 0 30 0 0 -105 0 -105 -140 0 c-138 0 -140 0 -140 23
-1 12 -2 53 -4 92 -5 86 -1 97 33 93 25 -3 26 -6 26 -63z m211 -207 c18 -18
30 -65 39 -159 l7 -66 -138 -16 c-76 -9 -139 -15 -140 -14 -6 6 -24 134 -24
169 0 52 34 89 91 99 65 11 148 5 165 -13z m5014 -107 c0 -30 -11 -51 -26 -51
-18 0 -34 -32 -34 -69 0 -20 5 -31 14 -31 21 0 25 -11 18 -46 l-7 -31 -115 52
c-71 32 -114 58 -113 66 1 8 4 30 7 50 l6 36 118 20 c64 12 120 21 125 22 4 0
7 -8 7 -18z m-202 -210 c18 -11 5 -59 -18 -66 -10 -3 -21 -18 -25 -32 -8 -34
9 -48 67 -57 34 -6 45 -3 55 10 18 24 16 51 -3 62 -11 6 -13 16 -9 35 9 33 37
35 66 6 18 -18 20 -28 15 -72 -16 -114 -51 -135 -165 -101 -77 23 -95 44 -87
107 13 94 56 139 104 108z m5 -256 c96 -28 98 -29 92 -54 -10 -39 -19 -43 -61
-27 -21 8 -72 25 -111 36 -40 12 -73 26 -73 30 0 5 4 20 10 35 8 20 14 24 27
17 10 -5 62 -22 116 -37z m-77 -81 c31 -15 39 -25 35 -47 -1 -4 8 -3 19 3 15
8 30 8 55 0 32 -11 33 -12 23 -41 -10 -28 -14 -30 -43 -25 -28 6 -33 3 -44
-21 -11 -23 -10 -29 5 -40 10 -7 21 -13 26 -13 11 0 10 -27 -2 -50 -9 -17 -16
-16 -117 25 -59 23 -109 47 -111 53 -4 14 45 132 65 154 20 22 45 23 89 2z
m-101 -355 c55 -12 102 -24 104 -25 11 -9 -32 -54 -52 -54 -15 0 -29 -11 -41
-31 -15 -26 -16 -35 -6 -55 11 -19 10 -27 -4 -49 l-17 -25 -22 22 c-13 13 -53
55 -89 93 l-66 70 25 43 c21 34 30 42 47 38 12 -3 66 -15 121 -27z m-190 -114
c18 -15 18 -17 2 -44 l-17 -29 65 -42 c85 -56 91 -63 69 -93 l-18 -23 -77 52
-77 52 -18 -25 c-19 -25 -19 -25 -41 -7 l-23 19 53 77 c28 43 54 77 57 77 3 0
14 -6 25 -14z m-101 -190 c19 -14 19 -15 1 -35 -10 -11 -26 -20 -36 -20 -26 0
-52 -40 -37 -57 8 -11 19 -5 54 27 51 47 71 49 113 14 47 -40 40 -74 -32 -151
-33 -35 -61 -41 -90 -19 -18 14 -18 15 0 35 9 12 26 21 36 21 23 0 57 39 50
57 -7 19 -27 16 -49 -8 -10 -12 -31 -30 -46 -41 -25 -18 -29 -18 -58 -3 -16 8
-37 26 -46 39 -14 22 -14 27 0 55 21 40 85 101 105 101 9 0 25 -7 35 -15z
m-114 -201 c22 -20 49 -51 60 -70 20 -32 21 -35 5 -69 -20 -41 -89 -95 -122
-95 -27 0 -121 82 -134 117 -15 40 16 94 78 135 41 26 68 22 113 -18z m-199
-145 l20 -20 -25 -20 c-13 -11 -31 -16 -40 -13 -18 7 -56 -21 -56 -41 0 -20
54 -84 72 -85 24 0 50 30 45 51 -3 13 4 26 22 38 27 19 27 19 39 0 24 -39 15
-75 -30 -114 -75 -64 -111 -59 -177 25 -60 76 -55 107 24 170 44 35 77 38 106
9z m-233 -251 c7 -7 12 -21 12 -33 0 -29 -19 -45 -52 -45 -36 0 -56 36 -39 69
13 23 59 29 79 9z m-238 -27 c0 -5 2 -16 5 -24 4 -10 -8 -19 -40 -32 -46 -17
-62 -35 -50 -54 4 -7 14 -4 26 8 51 47 113 26 139 -47 14 -40 13 -42 -9 -66
-35 -38 -105 -62 -136 -48 -14 7 -25 18 -25 26 0 19 37 39 57 32 18 -7 53 11
53 27 0 7 -6 21 -13 31 -11 15 -17 16 -40 5 -15 -7 -27 -15 -27 -19 0 -4 -11
-12 -24 -18 -23 -10 -26 -8 -56 50 -17 33 -30 61 -28 63 9 8 145 73 156 74 6
1 12 -3 12 -8z m-199 -122 c14 -14 19 -30 17 -52 -2 -24 2 -35 16 -42 25 -13
38 -62 25 -87 -13 -25 -84 -57 -126 -58 -22 0 -37 7 -47 22 -21 30 -20 33 10
47 22 10 28 9 38 -4 10 -14 16 -15 39 -4 36 16 32 44 -7 44 -36 1 -57 40 -25
48 19 5 26 31 11 41 -16 10 -52 -6 -52 -24 0 -23 -50 -46 -61 -28 -23 35 16
92 70 104 14 3 31 7 36 9 23 8 36 4 56 -16z m-211 -91 c28 -46 46 -133 34
-166 -11 -32 -92 -66 -133 -57 -27 6 -56 39 -46 54 7 13 55 20 55 8 0 -9 58
-3 68 7 2 3 1 14 -3 25 -5 17 -10 19 -31 11 -37 -14 -90 -12 -103 4 -7 8 -15
30 -18 50 -9 58 36 93 125 95 26 1 36 -5 52 -31z m-256 -45 c13 -60 36 -206
34 -208 -2 -1 -15 -5 -29 -9 -32 -7 -33 -6 -50 99 l-12 78 -28 -34 c-27 -33
-28 -33 -48 -15 l-20 18 32 40 c51 64 111 79 121 31z"/>
<path d="M4857 5723 c-23 -66 -22 -73 14 -73 l31 0 -7 48 c-11 73 -19 78 -38
25z"/>
<path d="M3853 5633 c-26 -5 -27 -8 -12 -52 10 -29 14 -32 43 -25 41 9 46 12
46 34 0 47 -15 55 -77 43z"/>
<path d="M3593 5525 c-38 -16 -37 -13 -17 -53 17 -36 38 -40 71 -14 20 16 21
19 8 50 -16 36 -18 37 -62 17z"/>
<path d="M3333 5368 c3 -9 11 -35 17 -57 11 -44 23 -49 54 -26 19 15 19 16
-10 43 -16 15 -38 34 -48 42 -18 14 -19 13 -13 -2z"/>
<path d="M4415 5373 c-308 -40 -580 -128 -823 -267 -565 -322 -950 -869 -1067
-1516 -67 -369 -32 -762 99 -1120 113 -306 270 -553 500 -788 292 -298 623
-485 1032 -583 191 -45 320 -58 544 -54 167 4 216 9 345 34 269 54 509 146
715 274 186 116 411 313 548 482 238 293 393 642 457 1030 33 200 35 486 5
675 -90 556 -367 1033 -800 1379 -305 244 -649 392 -1040 446 -96 13 -433 19
-515 8z m1268 -720 l247 -247 0 -288 c0 -224 -3 -288 -12 -288 -7 0 -195 -1
-418 -2 l-405 -3 -6 60 c-4 33 -7 126 -8 208 l-1 147 -402 -2 -403 -3 0 -320
0 -320 582 -5 582 -5 251 -248 250 -248 0 -522 0 -522 -248 -248 -248 -247
-729 0 -730 1 -253 250 -252 250 2 287 3 287 395 0 395 0 5 -210 5 -210 405 0
405 0 0 360 0 360 -560 3 -560 2 -252 253 -253 252 0 479 0 479 253 253 254
254 729 0 729 0 248 -247z"/>
<path d="M2775 4915 c-14 -13 -25 -30 -25 -36 0 -14 85 -99 99 -99 20 0 61 43
61 65 0 25 -70 95 -95 95 -9 0 -27 -11 -40 -25z"/>
<path d="M2280 4096 c-5 -7 -12 -26 -16 -42 -5 -26 -2 -30 27 -41 40 -16 51
-7 53 43 1 32 -2 38 -26 45 -18 4 -31 3 -38 -5z"/>
<path d="M2192 3808 c-7 -7 -12 -29 -12 -49 0 -33 4 -39 33 -48 18 -6 50 -12
72 -14 36 -2 39 0 49 32 13 44 1 61 -54 77 -56 17 -73 17 -88 2z"/>
<path d="M2136 3504 c-3 -9 -6 -29 -6 -45 0 -27 3 -29 39 -29 35 0 39 3 43 29
2 17 0 37 -4 45 -12 21 -64 21 -72 0z"/>
<path d="M2162 2963 c-21 -4 -23 -9 -20 -56 l3 -52 40 3 c22 1 57 5 78 8 39 6
39 6 32 43 -4 20 -11 42 -17 49 -10 11 -68 14 -116 5z"/>
<path d="M7200 2853 c-53 -9 -56 -15 -15 -34 29 -13 42 -15 47 -6 10 16 10 47
1 46 -5 -1 -19 -4 -33 -6z"/>
<path d="M6995 2288 c-14 -35 -12 -39 32 -52 18 -6 22 -2 28 25 6 25 3 35 -11
46 -26 19 -34 16 -49 -19z"/>
<path d="M6879 1946 c27 -27 38 -33 48 -25 21 18 15 36 -14 43 -16 4 -37 10
-48 13 -15 4 -12 -3 14 -31z"/>
<path d="M6450 1455 c-23 -25 -23 -25 -4 -47 31 -37 56 -58 69 -58 6 0 22 11
34 24 l23 24 -37 41 c-21 23 -43 41 -49 41 -7 0 -23 -11 -36 -25z"/>
<path d="M5383 850 c-25 -10 -27 -17 -14 -39 6 -9 18 -11 36 -7 20 5 26 12 23
28 -4 25 -15 30 -45 18z"/>
</g>
</svg>
