<?xml version="1.0" encoding="UTF-8"?>
<!DOCTYPE svg PUBLIC "-//W3C//DTD SVG 1.1//EN" "http://www.w3.org/Graphics/SVG/1.1/DTD/svg11.dtd">
<svg xmlns="http://www.w3.org/2000/svg" version="1.1" width="16px" height="16px" style="shape-rendering:geometricPrecision; text-rendering:geometricPrecision; image-rendering:optimizeQuality; fill-rule:evenodd; clip-rule:evenodd" xmlns:xlink="http://www.w3.org/1999/xlink">
<g><path style="opacity:0.495" fill="#41ade7" d="M -0.5,3.5 C 0.5,3.5 1.5,3.5 2.5,3.5C 2.55732,8.68174 3.22399,8.68174 4.5,3.5C 7.65196,3.71212 10.9853,3.71212 14.5,3.5C 14.2322,5.09903 14.5655,6.43236 15.5,7.5C 15.5,8.16667 15.5,8.83333 15.5,9.5C 12.8333,9.83333 12.8333,10.1667 15.5,10.5C 15.5,10.8333 15.5,11.1667 15.5,11.5C 10.1667,11.5 4.83333,11.5 -0.5,11.5C -0.5,11.1667 -0.5,10.8333 -0.5,10.5C 0.833333,8.83333 0.833333,7.16667 -0.5,5.5C -0.5,4.83333 -0.5,4.16667 -0.5,3.5 Z M 7.5,5.5 C 8.67504,5.28099 9.67504,5.61432 10.5,6.5C 8.94835,7.79789 7.94835,7.46455 7.5,5.5 Z"/></g>
</svg>
